# xmcd CD database file
#
# Track frame offsets:
#	150
#	17266
#	37769
#
# Disc length: 829 seconds
#
# Revision: 0
# Processed by: cddbd v1.5.1PL0 Copyright (c) Steve Scherf et al.
# Submitted via: CDex 1.40Beta9
#
DISCID=0f033b03
DTITLE=太陽族 - 向日葵
DYEAR=2005
DGENRE=J-Pop
TTITLE0=向日葵
TTITLE1=八月のスイッチ
TTITLE2=ターゲットマーク
EXTD=YEAR: 2005/06/29
EXTT0=
EXTT1=
EXTT2=
PLAYORDER=
